<?xml version="1.0" ?><!DOCTYPE svg  PUBLIC '-//W3C//DTD SVG 1.1//EN'  'http://www.w3.org/Graphics/SVG/1.1/DTD/svg11.dtd'><svg xmlns="http://www.w3.org/2000/svg" xmlns:xlink="http://www.w3.org/1999/xlink" version="1.1" id="Layer_1" width="512px" height="512px" viewBox="0 0 512 512" enable-background="new 0 0 512 512" xml:space="preserve"><g><path fill="#4063AE" d="M418.629,418.642c-76.935,76.935-194.823,87.962-283.513,33.094l-93.252,18.4l18.4-93.252   C5.396,288.194,16.423,170.306,93.358,93.371c89.828-89.828,235.456-89.828,325.271,0   C508.457,183.186,508.457,328.814,418.629,418.642z"/><g><polygon fill="#DEDEDF" points="312.255,414.598 212.89,414.598 235.393,379.75 235.393,262.628 199.739,262.628 220.196,204.178     289.752,204.178 289.752,379.75   "/><path fill="#DEDEDF" d="M286.683,129.947c0,14.145-11.573,25.718-25.718,25.718h-9.936c-14.145,0-25.718-11.573-25.718-25.718    v-6.819c0-14.145,11.573-25.718,25.718-25.718h9.936c14.145,0,25.718,11.573,25.718,25.718V129.947z"/></g></g></svg>