<?xml version="1.0" ?><svg id="Briefcase" style="enable-background:new 0 0 32 32;" version="1.1" viewBox="0 0 32 32" xml:space="preserve" xmlns="http://www.w3.org/2000/svg" xmlns:xlink="http://www.w3.org/1999/xlink"><style type="text/css">
	.st0{fill:#393B3D;}
	.st1{fill:#C77C58;}
	.st2{fill:#7A442A;}
	.st3{fill:#FBC34E;}
</style><g><path class="st0" d="M12,5.5h8v3h2v-4c0-0.552-0.447-1-1-1H11c-0.552,0-1,0.448-1,1v4h2V5.5z"/><path class="st1" d="M25.898,19.151c-0.189,0.222-0.467,0.349-0.759,0.349H22V20c0,0.553-0.447,1-1,1s-1-0.447-1-1v-0.5h-8V20   c0,0.553-0.448,1-1,1s-1-0.447-1-1v-0.5H6.86c-0.292,0-0.569-0.128-0.759-0.349l-3.859-4.5C2.085,14.47,2,14.239,2,14v13.5   c0,0.553,0.448,1,1,1h26c0.553,0,1-0.447,1-1V14c0,0.239-0.086,0.47-0.241,0.651L25.898,19.151z"/><path class="st2" d="M29,8.5h-7h-2h-8h-2H3c-0.552,0-1,0.448-1,1V14c0,0.239,0.085,0.47,0.241,0.651l3.859,4.5   C6.291,19.372,6.568,19.5,6.86,19.5H10V17c0-0.552,0.448-1,1-1s1,0.448,1,1v2.5h8V17c0-0.552,0.447-1,1-1s1,0.448,1,1v2.5h3.14   c0.292,0,0.569-0.127,0.759-0.349l3.86-4.5C29.914,14.47,30,14.239,30,14V9.5C30,8.948,29.553,8.5,29,8.5z"/><path class="st3" d="M11,21c0.552,0,1-0.447,1-1v-0.5V17c0-0.552-0.448-1-1-1s-1,0.448-1,1v2.5V20C10,20.553,10.448,21,11,21z"/><path class="st3" d="M21,21c0.553,0,1-0.447,1-1v-0.5V17c0-0.552-0.447-1-1-1s-1,0.448-1,1v2.5V20C20,20.553,20.447,21,21,21z"/></g></svg>